<svg width="113" height="113" viewBox="0 0 113 113" fill="none" xmlns="http://www.w3.org/2000/svg">
<rect width="112.283" height="112.283" rx="56.1414" fill="url(#paint0_linear_1_799)"/>
<path d="M54.3869 84.4226V58.7727H21.9302C21.439 58.7727 21.053 59.1587 21.053 59.65C21.053 66.6676 24.5618 70.1765 31.5795 70.1765H45.6148V81.5802H36.8427C35.4041 81.5802 34.2111 82.7732 34.2111 84.2118C34.2111 85.6504 35.4041 86.8434 36.8427 86.8434H54.5626C54.4573 86.0715 54.3869 85.2647 54.3869 84.4226ZM73.6855 21.0527H31.5795C24.5618 21.0527 21.053 24.5616 21.053 31.5792V52.6323C21.053 53.1235 21.439 53.5095 21.9302 53.5095H54.5626C55.4748 47.5094 59.8254 43.8602 66.422 43.8602C66.422 43.8602 82.2119 43.8602 83.1592 43.8602C83.8961 43.8602 84.2121 43.2284 84.2121 42.8074C84.2121 42.3863 84.2121 31.5792 84.2121 31.5792C84.2121 24.5616 80.7032 21.0527 73.6855 21.0527ZM84.4613 49.1234H66.4152C61.9028 49.1234 59.6468 51.3933 59.6468 55.9372V84.4157C59.6468 88.9596 61.9028 91.2295 66.4152 91.2295H84.4613C88.9737 91.2295 91.2297 88.9596 91.2297 84.4157V55.9372C91.2297 51.3933 88.9737 49.1234 84.4613 49.1234ZM75.44 85.9662C73.5031 85.9662 71.9311 84.3943 71.9311 82.4574C71.9311 80.5205 73.5031 78.9486 75.44 78.9486C77.3768 78.9486 78.9488 80.5205 78.9488 82.4574C78.9488 84.3943 77.3768 85.9662 75.44 85.9662Z" fill="url(#paint1_linear_1_799)"/>
<defs>
<linearGradient id="paint0_linear_1_799" x1="4.67701e-07" y1="16.2337" x2="122.628" y2="24.0653" gradientUnits="userSpaceOnUse">
<stop stop-color="#455DFF"/>
<stop offset="1" stop-color="#0021FE"/>
</linearGradient>
<linearGradient id="paint1_linear_1_799" x1="21.053" y1="31.1988" x2="97.6955" y2="36.0935" gradientUnits="userSpaceOnUse">
<stop stop-color="white"/>
<stop offset="1" stop-color="white"/>
</linearGradient>
</defs>
</svg>
